<?xml version="1.0" encoding="utf-8"?>
<!-- Generator: Adobe Illustrator 21.0.0, SVG Export Plug-In . SVG Version: 6.00 Build 0)  -->
<svg version="1.1" id="Layer_1" xmlns="http://www.w3.org/2000/svg" xmlns:xlink="http://www.w3.org/1999/xlink" x="0px" y="0px"
	 viewBox="0 0 100 35" style="enable-background:new 0 0 100 35;" xml:space="preserve">
<style type="text/css">
	.st0{fill:#FFFFFF;}
</style>
<g>
	<path d="M99.4,29.2c0,1.6-1.3,2.9-2.8,2.9H3.4c-1.6,0-2.8-1.3-2.8-2.9V5.8c0-1.6,1.3-2.9,2.8-2.9h93.1c1.6,0,2.8,1.3,2.8,2.9
		L99.4,29.2"/>
	<path class="st0" d="M22.7,17.3c0-2.4,1.9-3.5,2-3.6c-1.1-1.6-2.8-1.8-3.4-1.9c-1.4-0.2-2.8,0.9-3.6,0.9c-0.7,0-1.9-0.8-3.1-0.8
		c-1.6,0-3,0.9-3.8,2.3c-1.7,2.9-0.4,7.1,1.2,9.4c0.8,1.1,1.7,2.4,2.9,2.4s1.6-0.8,3.1-0.8c1.4,0,1.8,0.8,3.1,0.7
		c1.3,0,2.1-1.1,2.8-2.3c0.9-1.3,1.3-2.6,1.3-2.7C25.1,21.1,22.7,20.2,22.7,17.3"/>
	<path class="st0" d="M20.3,10.4c0.6-0.8,1.1-1.9,1-3c-0.9,0-2.1,0.6-2.8,1.4c-0.6,0.7-1.1,1.8-1,2.9C18.6,11.8,19.6,11.2,20.3,10.4
		"/>
	<path class="st0" d="M39.9,25.9h-1.7L37.3,23h-3.2l-0.9,2.9h-1.6l3.1-9.7h1.9L39.9,25.9z M37,21.9l-0.8-2.5
		c-0.1-0.3-0.3-0.9-0.5-1.8l0,0c-0.1,0.4-0.3,1-0.5,1.8l-0.8,2.5H37z"/>
	<path class="st0" d="M48,22.3c0,1.2-0.3,2.1-1,2.8c-0.6,0.6-1.3,0.9-2.2,0.9s-1.6-0.3-2-1v3.7h-1.6v-7.6c0-0.8,0-1.5-0.1-2.3h1.4
		l0.1,1.1l0,0c0.5-0.8,1.3-1.3,2.4-1.3c0.8,0,1.5,0.3,2.1,1C47.7,20.4,48,21.3,48,22.3 M46.4,22.4c0-0.7-0.2-1.2-0.5-1.7
		S45.1,20,44.5,20c-0.4,0-0.7,0.1-1,0.4s-0.5,0.6-0.6,1c0,0.2-0.1,0.3-0.1,0.5V23c0,0.5,0.2,0.9,0.5,1.3s0.7,0.5,1.2,0.5
		c0.6,0,1-0.2,1.4-0.7C46.2,23.7,46.4,23.1,46.4,22.4"/>
	<path class="st0" d="M56,22.3c0,1.2-0.3,2.1-1,2.8c-0.6,0.6-1.3,0.9-2.2,0.9s-1.6-0.3-2-1v3.7h-1.6v-7.6c0-0.8,0-1.5-0.1-2.3h1.4
		l0.1,1.1l0,0c0.5-0.8,1.3-1.3,2.4-1.3c0.8,0,1.5,0.3,2.1,1C55.8,20.4,56,21.3,56,22.3 M54.4,22.4c0-0.7-0.2-1.2-0.5-1.7
		S53.1,20,52.5,20c-0.4,0-0.7,0.1-1,0.4s-0.5,0.6-0.6,1c0,0.2-0.1,0.3-0.1,0.5V23c0,0.5,0.2,0.9,0.5,1.3c0.3,0.3,0.7,0.5,1.2,0.5
		c0.6,0,1-0.2,1.4-0.7C54.3,23.7,54.4,23.1,54.4,22.4"/>
	<path class="st0" d="M65.1,23.2c0,0.8-0.3,1.5-0.9,2c-0.6,0.6-1.5,0.9-2.7,0.9c-1,0-1.9-0.2-2.5-0.6l0.4-1.3
		c0.7,0.4,1.4,0.6,2.3,0.6c0.6,0,1-0.1,1.4-0.4c0.3-0.3,0.5-0.6,0.5-1.1c0-0.4-0.1-0.7-0.4-1c-0.3-0.3-0.7-0.5-1.3-0.8
		c-1.7-0.6-2.6-1.6-2.6-2.8c0-0.8,0.3-1.5,0.9-2c0.6-0.5,1.4-0.8,2.4-0.8c0.9,0,1.6,0.2,2.2,0.5l-0.4,1.3c-0.6-0.3-1.2-0.4-1.9-0.4
		c-0.6,0-1,0.1-1.3,0.4c-0.3,0.2-0.4,0.5-0.4,0.9s0.2,0.7,0.4,1c0.3,0.2,0.7,0.5,1.4,0.8c0.8,0.3,1.5,0.7,1.9,1.2
		C64.9,22,65.1,22.5,65.1,23.2"/>
	<path class="st0" d="M70.3,20.1h-1.7v3.4c0,0.9,0.3,1.3,0.9,1.3c0.3,0,0.5,0,0.7-0.1v1.2c-0.3,0.1-0.7,0.2-1.2,0.2
		c-0.6,0-1.1-0.2-1.4-0.6s-0.5-1-0.5-1.9v-3.5h-1v-1.2h1v-1.3l1.5-0.5v1.8h1.7V20.1z"/>
	<path class="st0" d="M78,22.4c0,1.1-0.3,2-0.9,2.7s-1.5,1.1-2.6,1.1c-1,0-1.9-0.3-2.5-1s-0.9-1.5-0.9-2.6s0.3-2,0.9-2.7
		s1.5-1,2.6-1c1,0,1.9,0.3,2.5,1C77.7,20.5,78,21.3,78,22.4 M76.4,22.4c0-0.6-0.1-1.2-0.4-1.7c-0.3-0.6-0.8-0.8-1.4-0.8
		s-1.1,0.3-1.4,0.8s-0.4,1-0.4,1.7c0,0.6,0.1,1.2,0.4,1.7c0.3,0.6,0.8,0.8,1.4,0.8s1.1-0.3,1.4-0.9C76.2,23.6,76.4,23,76.4,22.4"/>
	<path class="st0" d="M83.1,20.3c-0.2,0-0.3,0-0.5,0c-0.5,0-1,0.2-1.3,0.6s-0.4,0.8-0.4,1.4V26h-1.6v-4.8c0-0.8,0-1.5,0-2.2h1.4
		l0.1,1.3l0,0c0.2-0.5,0.4-0.8,0.8-1.1c0.3-0.3,0.7-0.4,1.1-0.4c0.1,0,0.3,0,0.4,0V20.3z"/>
	<path class="st0" d="M90.1,22.1c0,0.3,0,0.5-0.1,0.7h-4.7c0,0.7,0.2,1.2,0.7,1.6c0.4,0.3,0.9,0.5,1.5,0.5c0.7,0,1.3-0.1,1.9-0.3
		l0.2,1.1c-0.7,0.3-1.5,0.4-2.4,0.4c-1.1,0-1.9-0.3-2.6-1c-0.6-0.6-0.9-1.5-0.9-2.6s0.3-1.9,0.9-2.6c0.6-0.8,1.4-1.1,2.5-1.1
		c1,0,1.8,0.4,2.3,1.1C89.9,20.5,90.1,21.2,90.1,22.1 M88.6,21.7c0-0.5-0.1-0.9-0.3-1.2C88,20,87.6,19.8,87,19.8
		c-0.5,0-0.9,0.2-1.2,0.6c-0.3,0.3-0.4,0.7-0.5,1.2h3.3V21.7z"/>
	<path class="st0" d="M36.3,12.7h-0.8L35,11.3h-1.6L33,12.7h-0.8l1.5-4.8h1L36.3,12.7z M34.9,10.7l-0.4-1.3c0-0.1-0.1-0.4-0.2-0.9
		l0,0c0,0.2-0.1,0.5-0.2,0.9l-0.4,1.3H34.9z"/>
	<path class="st0" d="M40.1,9.2l-1.3,3.5h-0.7l-1.3-3.5h0.8l0.6,1.8c0.1,0.3,0.2,0.6,0.2,0.9l0,0c0.1-0.3,0.1-0.5,0.2-0.9l0.6-1.8
		H40.1z"/>
	<path class="st0" d="M43.6,12.7h-0.7l-0.1-0.4l0,0c-0.2,0.3-0.6,0.5-1,0.5c-0.3,0-0.6-0.1-0.8-0.3s-0.3-0.4-0.3-0.7
		c0-0.4,0.2-0.7,0.5-1c0.4-0.2,0.8-0.3,1.5-0.3v-0.1c0-0.5-0.2-0.7-0.7-0.7c-0.3,0-0.6,0.1-0.9,0.3L41,9.5c0.3-0.2,0.7-0.3,1.2-0.3
		c0.9,0,1.4,0.5,1.4,1.4v1.3C43.6,12.2,43.6,12.5,43.6,12.7 M42.8,11.5V11c-0.8,0-1.3,0.2-1.3,0.7c0,0.2,0,0.3,0.1,0.4
		c0.1,0.1,0.2,0.1,0.4,0.1s0.3-0.1,0.5-0.2c0.1-0.1,0.2-0.2,0.3-0.4V11.5z"/>
	<path class="st0" d="M45.8,8.2c0,0.1,0,0.2-0.1,0.3s-0.2,0.1-0.3,0.1s-0.2,0-0.3-0.1S45,8.3,45,8.2s0-0.2,0.1-0.3
		c0.1-0.1,0.2-0.1,0.3-0.1s0.2,0,0.3,0.1C45.7,8,45.8,8.1,45.8,8.2 M45.7,12.7h-0.8V9.2h0.8V12.7z"/>
	<rect x="47" y="7.7" class="st0" width="0.8" height="5"/>
	<path class="st0" d="M51.8,12.7h-0.7L51,12.3l0,0c-0.2,0.3-0.6,0.5-1,0.5c-0.3,0-0.6-0.1-0.8-0.3s-0.3-0.4-0.3-0.7
		c0-0.4,0.2-0.7,0.5-1c0.4-0.2,0.8-0.3,1.5-0.3v-0.1c0-0.5-0.2-0.7-0.7-0.7c-0.3,0-0.6,0.1-0.9,0.3l-0.2-0.5
		c0.3-0.2,0.7-0.3,1.2-0.3c0.9,0,1.4,0.5,1.4,1.4v1.3C51.7,12.2,51.7,12.5,51.8,12.7 M51,11.5V11c-0.8,0-1.3,0.2-1.3,0.7
		c0,0.2,0,0.3,0.1,0.4c0.1,0.1,0.2,0.1,0.4,0.1s0.3-0.1,0.5-0.2c0.1-0.1,0.2-0.2,0.3-0.4V11.5z"/>
	<path class="st0" d="M56.4,10.9c0,0.6-0.2,1-0.5,1.4c-0.3,0.3-0.6,0.5-1,0.5c-0.5,0-0.9-0.2-1.1-0.6l0,0v0.5H53c0-0.3,0-0.6,0-0.9
		V7.7h0.8v2.1c0.2-0.4,0.6-0.6,1.1-0.6c0.4,0,0.8,0.2,1,0.5C56.2,10,56.4,10.4,56.4,10.9 M55.6,10.9c0-0.3-0.1-0.6-0.2-0.8
		c-0.2-0.2-0.4-0.3-0.7-0.3c-0.2,0-0.4,0.1-0.5,0.2c-0.2,0.1-0.3,0.3-0.3,0.5c0,0.1,0,0.2,0,0.2v0.6c0,0.2,0.1,0.4,0.2,0.6
		c0.2,0.2,0.4,0.3,0.6,0.3c0.3,0,0.5-0.1,0.7-0.3C55.5,11.6,55.6,11.3,55.6,10.9"/>
	<rect x="57.5" y="7.7" class="st0" width="0.8" height="5"/>
	<path class="st0" d="M62.5,10.8c0,0.1,0,0.3,0,0.3h-2.3c0,0.3,0.1,0.6,0.3,0.8s0.4,0.2,0.8,0.2c0.3,0,0.7-0.1,0.9-0.2l0.1,0.5
		c-0.3,0.1-0.7,0.2-1.2,0.2s-1-0.2-1.3-0.5s-0.5-0.7-0.5-1.3c0-0.5,0.1-1,0.4-1.3c0.3-0.4,0.7-0.6,1.2-0.6s0.9,0.2,1.1,0.6
		C62.4,10,62.5,10.4,62.5,10.8 M61.7,10.6c0-0.2,0-0.4-0.1-0.6c-0.1-0.2-0.3-0.3-0.6-0.3s-0.5,0.1-0.6,0.3s-0.2,0.4-0.2,0.6H61.7z"
		/>
	<path class="st0" d="M68.8,10.9c0,0.5-0.2,1-0.5,1.3c-0.3,0.4-0.7,0.5-1.3,0.5c-0.5,0-0.9-0.2-1.2-0.5c-0.3-0.3-0.5-0.8-0.5-1.3
		s0.2-1,0.5-1.3s0.7-0.5,1.3-0.5c0.5,0,0.9,0.2,1.2,0.5C68.7,10,68.8,10.4,68.8,10.9 M68,11c0-0.3-0.1-0.6-0.2-0.8
		c-0.2-0.3-0.4-0.4-0.7-0.4c-0.3,0-0.5,0.1-0.7,0.4c-0.1,0.2-0.2,0.5-0.2,0.8s0.1,0.6,0.2,0.8c0.2,0.3,0.4,0.4,0.7,0.4
		c0.3,0,0.5-0.1,0.7-0.4C67.9,11.5,68,11.3,68,11"/>
	<path class="st0" d="M72.9,12.7h-0.8v-2c0-0.6-0.2-0.9-0.7-0.9c-0.2,0-0.4,0.1-0.6,0.3c-0.1,0.2-0.2,0.4-0.2,0.6v2.1h-0.8v-2.5
		c0-0.3,0-0.6,0-1h0.7v0.5l0,0c0.1-0.2,0.2-0.3,0.4-0.4c0.2-0.1,0.4-0.2,0.7-0.2c0.3,0,0.6,0.1,0.8,0.3c0.3,0.3,0.4,0.6,0.4,1.1
		L72.9,12.7L72.9,12.7z"/>
	<path class="st0" d="M78,9.8h-0.8v1.7c0,0.4,0.1,0.6,0.4,0.6c0.1,0,0.3,0,0.3,0v0.6c-0.2,0.1-0.4,0.1-0.6,0.1
		c-0.3,0-0.5-0.1-0.7-0.3s-0.3-0.5-0.3-0.9V9.8h-0.5V9.2h0.5V8.6l0.8-0.2v0.9H78V9.8z"/>
	<path class="st0" d="M82,12.7h-0.8v-2c0-0.6-0.2-0.9-0.7-0.9c-0.4,0-0.6,0.2-0.7,0.5c0,0.1,0,0.2,0,0.3v2.1H79v-5h0.8v2.1l0,0
		c0.2-0.4,0.6-0.6,1-0.6c0.3,0,0.6,0.1,0.8,0.3c0.3,0.3,0.4,0.6,0.4,1.2C82,10.7,82,12.7,82,12.7z"/>
	<path class="st0" d="M86,10.8c0,0.1,0,0.3,0,0.3h-2.3c0,0.3,0.1,0.6,0.3,0.8c0.2,0.2,0.4,0.2,0.8,0.2c0.3,0,0.7-0.1,0.9-0.2
		l0.1,0.5c-0.3,0.1-0.7,0.2-1.2,0.2s-1-0.2-1.3-0.5s-0.5-0.7-0.5-1.3c0-0.5,0.1-1,0.4-1.3c0.3-0.4,0.7-0.6,1.2-0.6s0.9,0.2,1.1,0.6
		C85.9,10,86,10.4,86,10.8 M85.2,10.6c0-0.2,0-0.4-0.1-0.6c-0.1-0.2-0.3-0.3-0.6-0.3c-0.3,0-0.5,0.1-0.6,0.3s-0.2,0.4-0.2,0.6H85.2z
		"/>
</g>
</svg>
