<svg width="37" height="25" viewBox="0 0 37 25" fill="none" xmlns="http://www.w3.org/2000/svg">
<path fill-rule="evenodd" clip-rule="evenodd" d="M15.7095 18.5811V13.6824C15.7095 9.96622 12.8378 7.93919 9.45946 7.26351L10.6419 4.72555e-07L5.23649 0L1.01351 10.1351C0.337839 11.4865 5.6116e-07 12.1622 4.28254e-07 13.6824L0 18.5811C-7.38368e-07 27.027 15.7095 27.027 15.7095 18.5811ZM36.7095 18.5811V13.6824C36.7095 9.96622 33.8378 7.93919 30.4595 7.26351L31.6419 4.72555e-07L26.2365 0L22.0135 10.1351C21.3378 11.4865 21 12.1622 21 13.6824V18.5811C21 27.027 36.7095 27.027 36.7095 18.5811Z" fill="#D6244B"/>
</svg>
