<?xml version="1.0" encoding="utf-8"?>
<!-- Generator: Adobe Illustrator 21.0.0, SVG Export Plug-In . SVG Version: 6.00 Build 0)  -->
<svg version="1.1" id="Layer_1" xmlns="http://www.w3.org/2000/svg" xmlns:xlink="http://www.w3.org/1999/xlink" x="0px" y="0px"
	 viewBox="0 0 100 35" style="enable-background:new 0 0 100 35;" xml:space="preserve">
<style type="text/css">
	.st0{clip-path:url(#SVGID_2_);fill:url(#SVGID_3_);}
	.st1{clip-path:url(#SVGID_5_);fill:url(#SVGID_6_);}
	.st2{clip-path:url(#SVGID_8_);fill:url(#SVGID_9_);}
	.st3{clip-path:url(#SVGID_11_);fill:url(#SVGID_12_);}
	.st4{fill:#FFFFFF;}
</style>
<g>
	<path d="M99.4,29.2c0,1.6-1.3,2.9-2.8,2.9H3.4c-1.6,0-2.8-1.3-2.8-2.9V5.8c0-1.6,1.3-2.9,2.8-2.9h93.1c1.6,0,2.8,1.3,2.8,2.9
		L99.4,29.2"/>
	<g>
		<g id="PLAY_1_">
			<g>
				<g>
					<defs>
						<path id="SVGID_1_" d="M22,14.5l-4.4-2.6c0,0-8.1-4.7-8.6-4.9C8.5,6.7,8,6.9,8,7.5c0,1,0,10,0,10s0,9.7,0,10.2
							C8,28,8.3,28.2,8.8,28c0.4-0.2,8.8-5.1,8.8-5.1l4.4-2.6c0,0,3.8-2.2,4.3-2.5s0.5-0.7,0-0.9C25.8,16.8,22,14.5,22,14.5z"/>
					</defs>
					<clipPath id="SVGID_2_">
						<use xlink:href="#SVGID_1_"  style="overflow:visible;"/>
					</clipPath>
					
						<linearGradient id="SVGID_3_" gradientUnits="userSpaceOnUse" x1="13.5" y1="20.5611" x2="13.5" y2="42.3611" gradientTransform="matrix(1 0 0 1 0 -14)">
						<stop  offset="0" style="stop-color:#257DB0"/>
						<stop  offset="0.208" style="stop-color:#3C90B3"/>
						<stop  offset="0.7416" style="stop-color:#73BDB9"/>
						<stop  offset="1" style="stop-color:#89CEBC"/>
					</linearGradient>
					<polygon class="st0" points="8,6.5 8,17.4 8,28.3 19,17.4 					"/>
				</g>
			</g>
			<g>
				<g>
					<defs>
						<path id="SVGID_4_" d="M22,14.5l-4.4-2.6c0,0-8.1-4.7-8.6-4.9C8.5,6.7,8,6.9,8,7.5c0,1,0,10,0,10s0,9.7,0,10.2
							C8,28,8.3,28.2,8.8,28c0.4-0.2,8.8-5.1,8.8-5.1l4.4-2.6c0,0,3.8-2.2,4.3-2.5s0.5-0.7,0-0.9C25.8,16.8,22,14.5,22,14.5z"/>
					</defs>
					<clipPath id="SVGID_5_">
						<use xlink:href="#SVGID_4_"  style="overflow:visible;"/>
					</clipPath>
					
						<linearGradient id="SVGID_6_" gradientUnits="userSpaceOnUse" x1="8" y1="25.95" x2="21.9403" y2="25.95" gradientTransform="matrix(1 0 0 1 0 -14)">
						<stop  offset="0" style="stop-color:#51BFAC"/>
						<stop  offset="1" style="stop-color:#DEE899"/>
					</linearGradient>
					<polygon class="st1" points="22,14.5 17.5,11.9 8,6.5 8,6.5 19,17.4 					"/>
				</g>
			</g>
			<g>
				<g>
					<defs>
						<path id="SVGID_7_" d="M22,14.5l-4.4-2.6c0,0-8.1-4.7-8.6-4.9C8.5,6.7,8,6.9,8,7.5c0,1,0,10,0,10s0,9.7,0,10.2
							C8,28,8.3,28.2,8.8,28c0.4-0.2,8.8-5.1,8.8-5.1l4.4-2.6c0,0,3.8-2.2,4.3-2.5s0.5-0.7,0-0.9C25.8,16.8,22,14.5,22,14.5z"/>
					</defs>
					<clipPath id="SVGID_8_">
						<use xlink:href="#SVGID_7_"  style="overflow:visible;"/>
					</clipPath>
					
						<linearGradient id="SVGID_9_" gradientUnits="userSpaceOnUse" x1="15" y1="31.4573" x2="15" y2="42.4323" gradientTransform="matrix(1 0 0 1 0 -14)">
						<stop  offset="0" style="stop-color:#EB403D"/>
						<stop  offset="0.1937" style="stop-color:#D64252"/>
						<stop  offset="0.7369" style="stop-color:#9F4887"/>
						<stop  offset="1" style="stop-color:#894A9C"/>
					</linearGradient>
					<polygon class="st2" points="8,28.3 8,28.4 17.5,22.9 22,20.4 19,17.4 					"/>
				</g>
			</g>
			<g>
				<g>
					<defs>
						<path id="SVGID_10_" d="M22,14.5l-4.4-2.6c0,0-8.1-4.7-8.6-4.9C8.5,6.7,8,6.9,8,7.5c0,1,0,10,0,10s0,9.7,0,10.2
							C8,28,8.3,28.2,8.8,28c0.4-0.2,8.8-5.1,8.8-5.1l4.4-2.6c0,0,3.8-2.2,4.3-2.5s0.5-0.7,0-0.9C25.8,16.8,22,14.5,22,14.5z"/>
					</defs>
					<clipPath id="SVGID_11_">
						<use xlink:href="#SVGID_10_"  style="overflow:visible;"/>
					</clipPath>
					
						<linearGradient id="SVGID_12_" gradientUnits="userSpaceOnUse" x1="23" y1="28.5287" x2="23" y2="34.3817" gradientTransform="matrix(1 0 0 1 0 -14)">
						<stop  offset="0" style="stop-color:#F48779"/>
						<stop  offset="0.6121" style="stop-color:#FAB076"/>
						<stop  offset="1" style="stop-color:#FDC674"/>
					</linearGradient>
					<polygon class="st3" points="22,14.5 19,17.4 22,20.4 27,17.4 					"/>
				</g>
			</g>
		</g>
		<g>
			<g>
				<path class="st4" d="M33.1,11.5h-0.7c0-0.1-0.1-0.3-0.2-0.8h-1c-0.1,0.4-0.2,0.7-0.2,0.8h-0.6c0-0.1,0.2-0.5,0.5-1.3
					s0.5-1.3,0.5-1.4h0.8c0,0.1,0.1,0.5,0.4,1.3C33,11,33.1,11.4,33.1,11.5z M32.2,10.3c-0.3-0.7-0.4-1.1-0.4-1.1l0,0
					c0,0.1-0.1,0.4-0.4,1.2L32.2,10.3L32.2,10.3z"/>
				<path class="st4" d="M35.8,11.5h-0.5c0-0.1-0.2-0.4-0.6-0.9c-0.4-0.6-0.6-1-0.7-1.2l0,0c0,0.3,0.1,0.6,0.1,0.8
					c0,0.3,0,0.8,0,1.2h-0.5c0-0.4,0-0.9,0-1.4s0-0.9,0-1.3h0.6c0,0.1,0.2,0.4,0.5,0.9c0.4,0.5,0.6,0.9,0.6,1.1l0,0
					c0-0.3,0-0.6,0-0.8c0-0.4,0-0.8,0-1.1h0.5c0,0.3,0,0.8,0,1.3C35.8,10.6,35.8,11.1,35.8,11.5z"/>
				<path class="st4" d="M38.8,10c0,0.4-0.1,0.7-0.4,1c-0.3,0.3-0.6,0.4-1.1,0.4c-0.2,0-0.5,0-0.8,0c0-0.4,0-0.9,0-1.4s0-0.9,0-1.3
					h0.4c0.1,0,0.1,0,0.3,0c0.1,0,0.2,0,0.2,0c0.5,0,0.9,0.1,1.1,0.4C38.7,9.4,38.8,9.7,38.8,10z M38.2,10.1c0-0.3-0.1-0.5-0.2-0.7
					c-0.2-0.2-0.4-0.3-0.7-0.3c-0.1,0-0.1,0-0.2,0c0,0.3,0,0.6,0,0.9c0,0.3,0,0.7,0,1c0.1,0,0.2,0,0.3,0c0.3,0,0.5-0.1,0.7-0.3
					C38.2,10.6,38.2,10.4,38.2,10.1z"/>
				<path class="st4" d="M41.5,11.5h-0.6c-0.2-0.5-0.3-0.8-0.4-0.9c-0.1-0.1-0.2-0.2-0.4-0.2c-0.1,0-0.2,0-0.2,0c0,0.4,0,0.7,0,1.1
					h-0.6c0-0.4,0-0.9,0-1.4s0-0.9,0-1.3h0.4c0,0,0.1,0,0.3,0c0.1,0,0.3,0,0.4,0c0.6,0,0.9,0.2,0.9,0.6c0,0.3-0.2,0.6-0.5,0.7l0,0
					c0.1,0,0.3,0.1,0.4,0.3C41.2,10.7,41.4,11,41.5,11.5z M40.8,9.6c0-0.3-0.2-0.4-0.5-0.4c-0.1,0-0.2,0-0.3,0c0,0.2,0,0.5,0,0.8
					c0.1,0,0.1,0,0.2,0C40.6,10,40.8,9.9,40.8,9.6z"/>
				<path class="st4" d="M44.5,10.1c0,0.4-0.1,0.8-0.4,1.1c-0.3,0.3-0.6,0.4-1,0.4s-0.7-0.1-0.9-0.4c-0.2-0.3-0.4-0.6-0.4-1
					s0.1-0.8,0.4-1.1c0.3-0.3,0.6-0.4,1-0.4s0.7,0.1,0.9,0.4C44.4,9.4,44.5,9.7,44.5,10.1z M43.9,10.1c0-0.3-0.1-0.5-0.2-0.7
					c-0.1-0.2-0.3-0.3-0.5-0.3s-0.4,0.1-0.5,0.3s-0.2,0.4-0.2,0.7s0.1,0.5,0.2,0.7c0.1,0.2,0.3,0.3,0.5,0.3s0.4-0.1,0.5-0.3
					C43.9,10.6,43.9,10.4,43.9,10.1z"/>
				<path class="st4" d="M45.7,11.5h-0.6c0-0.4,0-0.9,0-1.4s0-0.9,0-1.3h0.6c0,0.3,0,0.8,0,1.3S45.7,11.1,45.7,11.5z"/>
				<path class="st4" d="M48.7,10c0,0.4-0.1,0.7-0.4,1c-0.3,0.3-0.6,0.4-1.1,0.4c-0.2,0-0.5,0-0.8,0c0-0.4,0-0.9,0-1.4s0-0.9,0-1.3
					h0.4c0.1,0,0.1,0,0.3,0c0.1,0,0.2,0,0.2,0c0.5,0,0.9,0.1,1.1,0.4C48.6,9.4,48.7,9.7,48.7,10z M48.1,10.1c0-0.3-0.1-0.5-0.2-0.7
					c-0.2-0.2-0.4-0.3-0.7-0.3c-0.1,0-0.1,0-0.2,0c0,0.3,0,0.6,0,0.9c0,0.3,0,0.7,0,1c0.1,0,0.2,0,0.3,0c0.3,0,0.5-0.1,0.7-0.3
					C48,10.6,48.1,10.4,48.1,10.1z"/>
				<path class="st4" d="M52.6,11.5h-0.7c0-0.1-0.1-0.3-0.2-0.8h-1c-0.1,0.4-0.2,0.7-0.2,0.8h-0.6c0-0.1,0.2-0.5,0.5-1.3
					C50.8,9.3,51,8.9,51,8.8h0.8c0,0.1,0.1,0.5,0.4,1.3C52.5,11,52.6,11.4,52.6,11.5z M51.7,10.3c-0.2-0.7-0.4-1.1-0.4-1.2l0,0
					c0,0.1-0.1,0.4-0.4,1.2H51.7z"/>
				<path class="st4" d="M55.1,9.5c0,0.3-0.1,0.6-0.4,0.7c-0.2,0.2-0.5,0.2-0.9,0.2c-0.1,0-0.1,0-0.1,0c0,0.3,0,0.6,0,1h-0.6
					c0-0.4,0-0.9,0-1.4s0-0.9,0-1.3h0.4c0.1,0,0.1,0,0.3,0c0.1,0,0.3,0,0.4,0c0.3,0,0.5,0.1,0.7,0.2C55,9.1,55.1,9.2,55.1,9.5z
					 M54.5,9.6c0-0.3-0.2-0.4-0.6-0.4c-0.1,0-0.2,0-0.3,0c0,0.3,0,0.6,0,0.9h0.1C54.3,10.1,54.5,9.9,54.5,9.6z"/>
				<path class="st4" d="M57.5,9.5c0,0.3-0.1,0.6-0.4,0.7c-0.2,0.2-0.5,0.2-0.9,0.2c-0.1,0-0.1,0-0.1,0c0,0.3,0,0.6,0,1h-0.6
					c0-0.4,0-0.9,0-1.4s0-0.9,0-1.3h0.4c0.1,0,0.1,0,0.3,0c0.1,0,0.3,0,0.4,0c0.3,0,0.5,0.1,0.7,0.2C57.4,9.1,57.5,9.2,57.5,9.5z
					 M57,9.6c0-0.3-0.2-0.4-0.6-0.4c-0.1,0-0.2,0-0.3,0c0,0.3,0,0.6,0,0.9h0.1C56.7,10.1,57,9.9,57,9.6z"/>
				<path class="st4" d="M61.6,10.1c0,0.4-0.1,0.8-0.4,1.1s-0.6,0.4-1,0.4s-0.7-0.1-0.9-0.4c-0.2-0.3-0.4-0.6-0.4-1s0.1-0.8,0.4-1.1
					c0.3-0.3,0.6-0.4,1-0.4s0.7,0.1,0.9,0.4C61.5,9.4,61.6,9.7,61.6,10.1z M61,10.1c0-0.3-0.1-0.5-0.2-0.7c-0.1-0.2-0.3-0.3-0.5-0.3
					s-0.4,0.1-0.5,0.3s-0.2,0.4-0.2,0.7s0.1,0.5,0.2,0.7c0.1,0.2,0.3,0.3,0.5,0.3s0.4-0.1,0.5-0.3S61,10.4,61,10.1z"/>
				<path class="st4" d="M64.4,11.5h-0.5c0-0.1-0.2-0.4-0.6-0.9c-0.4-0.6-0.6-1-0.7-1.2l0,0c0,0.3,0.1,0.6,0.1,0.8
					c0,0.3,0,0.8,0,1.2h-0.5c0-0.4,0-0.9,0-1.4s0-0.9,0-1.3h0.6c0,0.1,0.2,0.4,0.5,0.9c0.4,0.5,0.6,0.9,0.6,1.1l0,0
					c0-0.3,0-0.6,0-0.8c0-0.4,0-0.8,0-1.1h0.5c0,0.3,0,0.8,0,1.3C64.4,10.6,64.4,11.1,64.4,11.5z"/>
			</g>
			<path class="st4" d="M50.2,17.5c-1.7,0-3.1,1.3-3.1,3.1c0,1.7,1.4,3.1,3.1,3.1s3.1-1.3,3.1-3.1C53.3,18.7,51.9,17.5,50.2,17.5z
				 M50.2,22.4c-0.9,0-1.7-0.8-1.7-1.9s0.8-1.9,1.7-1.9s1.7,0.7,1.7,1.9C51.9,21.6,51.1,22.4,50.2,22.4z M43.4,17.5
				c-1.7,0-3.1,1.3-3.1,3.1c0,1.7,1.4,3.1,3.1,3.1s3.1-1.3,3.1-3.1C46.5,18.7,45.1,17.5,43.4,17.5z M43.4,22.4
				c-0.9,0-1.7-0.8-1.7-1.9s0.8-1.9,1.7-1.9s1.7,0.7,1.7,1.9C45.1,21.6,44.3,22.4,43.4,22.4z M35.3,18.4v1.3h3.1
				c-0.1,0.7-0.4,1.3-0.7,1.7c-0.4,0.4-1.2,0.9-2.4,0.9c-2,0-3.4-1.5-3.4-3.5s1.5-3.5,3.4-3.5c1,0,1.8,0.4,2.4,0.9l0.9-0.9
				c-0.8-0.7-1.8-1.3-3.3-1.3c-2.6,0-4.9,2.2-4.9,4.8s2.3,4.8,4.9,4.8c1.5,0,2.5-0.4,3.3-1.4c0.9-0.9,1.2-2.1,1.2-3.1
				c0-0.3,0-0.6-0.1-0.8L35.3,18.4L35.3,18.4z M68.4,19.4c-0.3-0.7-1-2-2.6-2s-3,1.3-3,3.2c0,1.7,1.3,3.1,3.1,3.1
				c1.4,0,2.3-0.9,2.5-1.4l-1-0.7c-0.4,0.5-0.8,0.9-1.5,0.9s-1.2-0.3-1.5-0.9l4.1-1.7L68.4,19.4L68.4,19.4z M64.1,20.5
				c0-1.2,0.9-1.8,1.6-1.8c0.5,0,1,0.3,1.2,0.7L64.1,20.5L64.1,20.5z M60.7,23.5h1.4v-9.1h-1.4V23.5z M58.5,18.1
				c-0.4-0.4-0.9-0.7-1.7-0.7c-1.5,0-3,1.4-3,3.1s1.4,3.1,3,3.1c0.7,0,1.3-0.4,1.6-0.7h0.1v0.4c0,1.2-0.7,1.8-1.7,1.8
				c-0.8,0-1.4-0.6-1.5-1.1l-1.2,0.5c0.4,0.8,1.2,1.8,2.8,1.8s2.9-0.9,2.9-3.2v-5.5h-1.3L58.5,18.1L58.5,18.1z M56.9,22.4
				c-0.9,0-1.7-0.8-1.7-1.9s0.8-1.9,1.7-1.9s1.7,0.8,1.7,1.9S57.9,22.4,56.9,22.4z M74.7,14.4h-3.3v9.1h1.4v-3.4h1.9
				c1.5,0,3-1.1,3-2.8S76.2,14.4,74.7,14.4z M74.8,18.7h-2v-3.1h2c1,0,1.6,0.9,1.6,1.5C76.3,17.9,75.7,18.7,74.8,18.7L74.8,18.7z
				 M83.1,17.4c-1,0-2,0.4-2.4,1.4l1.2,0.5c0.3-0.5,0.7-0.7,1.2-0.7c0.7,0,1.4,0.4,1.5,1.2v0.1c-0.2-0.1-0.8-0.4-1.4-0.4
				c-1.3,0-2.6,0.7-2.6,2c0,1.2,1.1,2,2.3,2c0.9,0,1.4-0.4,1.7-0.9h0.1v0.7H86v-3.5C85.9,18.4,84.7,17.4,83.1,17.4L83.1,17.4z
				 M83,22.4c-0.4,0-1.1-0.2-1.1-0.8c0-0.7,0.8-0.9,1.5-0.9c0.6,0,0.9,0.1,1.2,0.3C84.4,21.9,83.7,22.4,83,22.4z M90.6,17.6
				l-1.5,3.9H89l-1.6-3.9h-1.5l2.4,5.5l-1.4,3.1h1.4l3.7-8.6H90.6L90.6,17.6z M78.4,23.5h1.4v-9.1h-1.4V23.5z"/>
		</g>
	</g>
</g>
</svg>
