<svg width="16" height="10" viewBox="0 0 16 10" fill="none" xmlns="http://www.w3.org/2000/svg">
<path d="M14.7541 3.44251L10.9836 0.163824C10.4918 -0.164045 9.83607 -0.000110625 9.5082 0.327758C9.18033 0.819562 9.18033 1.4753 9.67213 1.80317L12.459 4.09825H0.983607C0.491803 4.09825 0 4.42612 0 5.08186C0 5.73759 0.491803 6.06546 0.983607 6.06546H12.459L9.67213 8.36055C9.18033 8.68841 9.18033 9.34415 9.5082 9.67202C9.67213 9.83596 10 9.99989 10.3279 9.99989C10.4918 9.99989 10.8197 9.99989 10.9836 9.83596L14.7541 6.7212C15.4098 6.39333 15.7377 5.73759 15.7377 4.91792C15.7377 4.09825 15.2459 3.60645 14.7541 3.44251Z" fill="#D6244B"/>
</svg>
